<?xml version="1.0" encoding="UTF-8"?>
<svg width="24px" height="24px" viewBox="0 0 24 24" version="1.1" xmlns="http://www.w3.org/2000/svg" xmlns:xlink="http://www.w3.org/1999/xlink">
    <!-- Generator: Sketch 52.5 (67469) - http://www.bohemiancoding.com/sketch -->
    <title>insecure</title>
    <desc>Created with Sketch.</desc>
    <g id="insecure" stroke="none" stroke-width="1" fill="none" fill-rule="evenodd">
        <path d="M17.3333333,8.66666667 C18.3809524,8.66666667 19.2380952,9.52380952 19.2380952,10.5714286 L19.2380952,20.0952381 C19.2380952,21.1428571 18.3809524,22 17.3333333,22 L5.9047619,22 C4.85714286,22 4,21.1428571 4,20.0952381 L4,10.5714286 C4,9.52380952 4.85714286,8.66666667 5.9047619,8.66666667 L14.5714286,8.66666667 L14.5714286,6.76190476 C14.5714286,5.13333333 13.247619,3.80952381 11.6190476,3.80952381 C9.99047619,3.80952381 8.66666667,5.13333333 8.66666667,6.76190476 L6.85714286,6.76190476 C6.85714286,4.13333333 8.99047619,2 11.6190476,2 C14.247619,2 16.3809524,4.13333333 16.3809524,6.76190476 L16.3809524,8.66666667 L17.3333333,8.66666667 Z M11.6190476,17.2380952 C12.6666667,17.2380952 13.5238095,16.3809524 13.5238095,15.3333333 C13.5238095,14.2857143 12.6666667,13.4285714 11.6190476,13.4285714 C10.5714286,13.4285714 9.71428571,14.2857143 9.71428571,15.3333333 C9.71428571,16.3809524 10.5714286,17.2380952 11.6190476,17.2380952 Z" id="unsecure" fill="#4B4B4B" fill-rule="nonzero"></path>
    </g>
</svg>