<?xml version="1.0" encoding="UTF-8"?>
<svg width="24px" height="24px" viewBox="0 0 24 24" version="1.1" xmlns="http://www.w3.org/2000/svg" xmlns:xlink="http://www.w3.org/1999/xlink">
    <!-- Generator: Sketch 52.5 (67469) - http://www.bohemiancoding.com/sketch -->
    <title>invisible</title>
    <desc>Created with Sketch.</desc>
    <g id="invisible" stroke="none" stroke-width="1" fill="none" fill-rule="evenodd">
        <path d="M12.4210526,7.78947368 C15.0357895,7.78947368 17.1578947,9.91157895 17.1578947,12.5263158 C17.1578947,13.1421053 17.0347368,13.72 16.8168421,14.26 L19.5831579,17.0263158 C21.0136842,15.8326316 22.1410526,14.2884211 22.8326316,12.5263158 C21.1936842,8.36736842 17.1484211,5.42105263 12.4115789,5.42105263 C11.0852632,5.42105263 9.81578947,5.65789474 8.64105263,6.08421053 L10.6873684,8.13052632 C11.2273684,7.91263158 11.8052632,7.78947368 12.4210526,7.78947368 Z M2.94736842,5.20315789 L5.10736842,7.36315789 L5.54315789,7.79894737 C3.97052632,9.02105263 2.73894737,10.6505263 2,12.5263158 C3.63894737,16.6852632 7.68421053,19.6315789 12.4210526,19.6315789 C13.8894737,19.6315789 15.2915789,19.3473684 16.5705263,18.8357895 L16.9684211,19.2336842 L19.7442105,22 L20.9473684,20.7968421 L4.15052632,4 L2.94736842,5.20315789 Z M8.18631579,10.4421053 L9.65473684,11.9105263 C9.60736842,12.1094737 9.57894737,12.3178947 9.57894737,12.5263158 C9.57894737,14.0989474 10.8484211,15.3684211 12.4210526,15.3684211 C12.6294737,15.3684211 12.8378947,15.34 13.0368421,15.2926316 L14.5052632,16.7610526 C13.8705263,17.0736842 13.1694737,17.2631579 12.4210526,17.2631579 C9.80631579,17.2631579 7.68421053,15.1410526 7.68421053,12.5263158 C7.68421053,11.7778947 7.87368421,11.0768421 8.18631579,10.4421053 Z M12.2694737,9.70315789 L15.2536842,12.6873684 L15.2726316,12.5357895 C15.2726316,10.9631579 14.0031579,9.69368421 12.4305263,9.69368421 L12.2694737,9.70315789 Z" fill="#4B4B4B" fill-rule="nonzero"></path>
    </g>
</svg>