<?xml version="1.0" encoding="UTF-8"?>
<svg width="50px" height="50px" viewBox="0 0 50 50" version="1.1" xmlns="http://www.w3.org/2000/svg" xmlns:xlink="http://www.w3.org/1999/xlink">
    <!-- Generator: Sketch 51.2 (57519) - http://www.bohemiancoding.com/sketch -->
    <title>no-cookies-found-menu-open</title>
    <desc>Created with Sketch.</desc>
    <defs></defs>
    <g id="Page-1" stroke="none" stroke-width="1" fill="none" fill-rule="evenodd">
        <g id="no-cookies-found-menu-open" fill="#4B4B4B" fill-rule="nonzero">
            <g id="logo-icon">
                <path d="M39.5555651,16.7832741 L34.8747508,14.1494203 L34.8747508,11.2638999 C34.8747508,10.8508865 34.5830185,10.495109 34.1756439,10.4112916 L17.7186733,7.0181505 C17.460619,6.96491607 17.1909069,7.0302265 16.986464,7.19507459 C16.7825968,7.35985123 16.6631405,7.60908839 16.6631405,7.87090175 L16.6631405,10.9221992 L10.234307,17.7968005 C10.0839792,17.9575756 10,18.1705848 10,18.3896677 L10,37.8280229 C10,38.2173845 10.2603571,38.5590853 10.6372919,38.6656256 L27.947871,43.5524747 C28.1796593,43.617285 28.4285745,43.5856301 28.6358239,43.4635839 L39.2071271,37.2271527 C39.4080438,37.2070022 39.6000374,37.1226846 39.7429531,36.9804879 C39.906162,36.8182123 40,36.5936273 40,36.3644691 L40,17.541561 C40.0000719,17.2274422 39.8305304,16.9386186 39.5555651,16.7832741 Z M37.6618236,17.720343 L29.542612,21.3736539 L33.8560624,15.57939 L37.6618236,17.720343 Z M18.4177083,8.9415926 L33.1200391,11.9728825 L33.1200391,14.0314471 L18.4177083,11.0000858 L18.4177083,8.9415926 Z M27.7493289,41.6852682 L11.7544238,37.1697739 L11.7544238,31.0926172 L27.7493289,34.8549694 L27.7493289,41.6852682 Z M15.9079755,27.6478137 L15.0796255,29.1350908 C14.9579384,29.3511011 14.8422961,29.3983332 14.6649828,29.3616765 C14.480833,29.3235192 14.3677094,29.2300553 14.2599109,28.9667413 L13.5076963,27.1554131 L13.4761051,27.1489106 L13.420191,29.3295215 C13.4150817,29.5456032 13.2660492,29.6390672 13.0690184,29.5978373 C12.8660867,29.5561072 12.7228831,29.4033351 12.7282082,29.1873248 L12.8119715,25.9077982 C12.8180163,25.650558 12.9877737,25.5264396 13.2412944,25.5787451 C13.4631521,25.623905 13.5633946,25.7565981 13.6772378,26.0259143 L14.6882983,28.4492598 L14.7130531,28.4547619 L15.8113311,26.4640801 C15.9312911,26.241996 16.0357793,26.1520334 16.2576369,26.197765 C16.5118773,26.2499991 16.6662349,26.4399281 16.6601182,26.6972397 L16.576139,29.9771951 C16.5711017,30.1932769 16.4221411,30.2862406 16.2259738,30.2460111 C16.0221066,30.2043525 15.8788311,30.0515804 15.8842282,29.8355701 L15.9398545,27.6543876 L15.9079755,27.6478137 Z M17.5315012,30.1490459 L17.6154804,26.8403653 C17.6212373,26.6182813 17.7832229,26.510812 17.9990357,26.5549716 C18.2150644,26.5992026 18.3702136,26.7720538 18.3641689,26.9941378 L18.2801897,30.3033185 C18.2741449,30.5254026 18.1122313,30.6334434 17.8963465,30.5887122 C17.6805337,30.5444097 17.5253844,30.3716301 17.5315012,30.1490459 Z M20.0268417,30.3736308 L21.7290214,30.7228344 C21.9645517,30.7711384 22.1085469,30.9298413 22.1034376,31.1112671 C22.0991199,31.2926214 21.9491519,31.3906585 21.7135496,31.3429262 L19.5991739,30.9087619 C19.3704799,30.8620299 19.2282838,30.6977535 19.2336089,30.4867451 L19.3175881,27.1896403 C19.323417,26.9680565 19.4854026,26.8600156 19.7011435,26.9042466 C19.9171722,26.9484777 20.0723214,27.1213288 20.0662766,27.3434128 L19.9898534,30.3310433 C19.9899254,30.3539805 20.0020149,30.3685575 20.0268417,30.3736308 Z M25.1676345,28.1723693 C25.2526212,28.0959833 25.3614271,28.0648286 25.4752704,28.0889806 C25.6602117,28.1266377 25.8084526,28.2809104 25.8041349,28.4557623 C25.8024078,28.5436527 25.7682261,28.6129646 25.7090017,28.6657703 L24.6724668,29.546032 L25.8306887,31.669907 C25.8734339,31.7492942 25.8967495,31.8362557 25.8949504,31.9005658 C25.8899131,32.0819201 25.7408807,32.1985356 25.52478,32.1543046 C25.3724373,32.1226498 25.2532688,32.0221832 25.174327,31.8764852 L24.1628347,29.9766949 L23.4645193,30.602789 L23.4448018,31.362505 C23.4387571,31.5850892 23.2767715,31.6926299 23.060239,31.6483275 C22.8451458,31.6041679 22.689349,31.4313168 22.6951059,31.2092327 L22.7790851,27.9001235 C22.7851298,27.6780394 22.947835,27.5699985 23.1629283,27.6142296 C23.3797486,27.6583891 23.5348258,27.8318119 23.528781,28.0538959 L23.487547,29.6672207 L25.1676345,28.1723693 Z M27.7493289,26.5554718 L11.7543519,22.7931196 L11.7543519,19.0432721 L27.749257,22.8056243 L27.7493289,26.5554718 Z M28.0070954,21.9710943 L12.2016652,18.2529731 L18.1832574,11.8566956 C18.1872873,11.8526941 18.1898779,11.8476922 18.1941236,11.8431905 L33.1699805,14.9312162 C33.1776084,14.9543678 33.1886905,14.9759474 33.1980455,14.9985988 L28.0070954,21.9710943 Z M38.2457201,35.7674575 L28.6264689,41.4421762 L28.6264689,34.791231 L38.2457201,30.4641651 L38.2457201,35.7674575 Z M38.2457201,22.1027869 L28.6264689,26.4308532 L28.6264689,22.7418859 L38.2457201,18.4147486 L38.2457201,22.1027869 Z" id="Shape"></path>
            </g>
        </g>
    </g>
</svg>