<?xml version="1.0" encoding="UTF-8"?>
<svg width="24px" height="24px" viewBox="0 0 24 24" version="1.1" xmlns="http://www.w3.org/2000/svg" xmlns:xlink="http://www.w3.org/1999/xlink">
    <!-- Generator: Sketch 52.5 (67469) - http://www.bohemiancoding.com/sketch -->
    <title>strict</title>
    <desc>Created with Sketch.</desc>
    <g id="strict" stroke="none" stroke-width="1" fill="none" fill-rule="evenodd">
        <path d="M5.70061722,12.9090909 C6.09853885,15.6987446 8.30125541,17.9014611 11.0909091,18.2993828 L11.0909091,12.9090909 L5.70061722,12.9090909 Z M5.70061722,11.0909091 L11.0909091,11.0909091 L11.0909091,5.70061722 C8.30125541,6.09853885 6.09853885,8.30125541 5.70061722,11.0909091 Z M18.2993828,11.0909091 C17.9014611,8.30125541 15.6987446,6.09853885 12.9090909,5.70061722 L12.9090909,11.0909091 L18.2993828,11.0909091 Z M18.2993828,12.9090909 L12.9090909,12.9090909 L12.9090909,18.2993828 C15.6987446,17.9014611 17.9014611,15.6987446 18.2993828,12.9090909 Z M20.1272727,11.0909091 L22,11.0909091 L22,12.9090909 L20.1272727,12.9090909 C19.7090909,16.7 16.7,19.7090909 12.9090909,20.1272727 L12.9090909,22 L11.0909091,22 L11.0909091,20.1272727 C7.3,19.7090909 4.29090909,16.7 3.87272727,12.9090909 L2,12.9090909 L2,11.0909091 L3.87272727,11.0909091 C4.29090909,7.3 7.3,4.29090909 11.0909091,3.87272727 L11.0909091,2 L12.9090909,2 L12.9090909,3.87272727 C16.7,4.29090909 19.7090909,7.3 20.1272727,11.0909091 Z" id="Shape" fill="#4B4B4B" fill-rule="nonzero"></path>
    </g>
</svg>