<?xml version="1.0" encoding="UTF-8"?>
<svg width="24px" height="24px" viewBox="0 0 24 24" version="1.1" xmlns="http://www.w3.org/2000/svg" xmlns:xlink="http://www.w3.org/1999/xlink">
    <!-- Generator: Sketch 52.5 (67469) - http://www.bohemiancoding.com/sketch -->
    <title>visible</title>
    <desc>Created with Sketch.</desc>
    <g id="visible" stroke="none" stroke-width="1" fill="none" fill-rule="evenodd">
        <path d="M12.2666667,6 C7.6,6 3.61466667,8.90266667 2,13 C3.61466667,17.0973333 7.6,20 12.2666667,20 C16.9333333,20 20.9186667,17.0973333 22.5333333,13 C20.9186667,8.90266667 16.9333333,6 12.2666667,6 Z M12.2666667,17.6666667 C9.69066667,17.6666667 7.6,15.576 7.6,13 C7.6,10.424 9.69066667,8.33333333 12.2666667,8.33333333 C14.8426667,8.33333333 16.9333333,10.424 16.9333333,13 C16.9333333,15.576 14.8426667,17.6666667 12.2666667,17.6666667 Z M12.2666667,10.2 C10.7173333,10.2 9.46666667,11.4506667 9.46666667,13 C9.46666667,14.5493333 10.7173333,15.8 12.2666667,15.8 C13.816,15.8 15.0666667,14.5493333 15.0666667,13 C15.0666667,11.4506667 13.816,10.2 12.2666667,10.2 Z" fill="#4B4B4B" fill-rule="nonzero"></path>
    </g>
</svg>